<?xml version="1.0" encoding="iso-8859-1"?>
<svg xmlns="http://www.w3.org/2000/svg" xmlns:xlink="http://www.w3.org/1999/xlink" version="1.1" viewBox="0 0 64.43 64.43" enable-background="new 0 0 64.43 64.43" width="512px" height="512px">
  <g>
    <g>
      <path d="m63,31.215h-30v-30c0-0.552-0.448-1-1-1-17.673,0-32,14.327-32,32s14.327,32 32,32 32-14.327 32-32c0-0.552-0.448-1-1-1zm-61,1c0-16.231 12.898-29.417 29-29.949v29.476l-20.915,20.915c-5.001-5.36-8.085-12.533-8.085-20.442zm30,30c-7.925,0-15.112-3.096-20.475-8.116l20.884-20.884h29.54c-0.532,16.102-13.718,29-29.949,29zm7-61.43v0.055c-0.552,0-1,0.448-1,1v24.375c0,0.552 0.448,1 1,1h24.375c0.552,0 1-0.448 1-1h0.055c-2.44-12.859-12.571-22.99-25.43-25.43zm1,24.43v-22.156c10.94,2.618 19.539,11.218 22.157,22.156h-22.157z" fill="#E2DB1A"/>
    </g>
  </g>
</svg>
