<svg id="Layer_1" data-name="Layer 1" xmlns="http://www.w3.org/2000/svg" viewBox="0 0 200 200"><defs><style>.cls-1,.cls-2{fill:none;stroke:#ffa73a;stroke-miterlimit:10;stroke-width:3.9px;}.cls-2{stroke-linecap:round;}</style></defs><title>service4</title><path class="cls-1" d="M54,47.88a.72.72,0,1,0-.72.72A.71.71,0,0,0,54,47.88Z"/><path class="cls-1" d="M137.63,48.83a.72.72,0,1,0-.71.71A.71.71,0,0,0,137.63,48.83Z"/><line class="cls-2" x1="3.68" y1="162.12" x2="144.66" y2="162.12"/><rect class="cls-1" x="3.68" y="99.48" width="15.49" height="49.48"/><rect class="cls-1" x="129.17" y="73.8" width="15.49" height="75.16"/><rect class="cls-1" x="45.51" y="72.86" width="15.49" height="76.11"/><circle class="cls-1" cx="53.25" cy="47.88" r="10.98" transform="translate(-11.3 78.9) rotate(-67.62)"/><circle class="cls-1" cx="136.92" cy="48.83" r="10.98" transform="translate(-6.04 22.5) rotate(-9.19)"/><rect class="cls-1" x="87.34" y="96.66" width="15.49" height="52.31"/><circle class="cls-1" cx="95.09" cy="71.68" r="6.6"/><path class="cls-1" d="M18,74.51a6.6,6.6,0,1,0-6.6,6.6A6.6,6.6,0,0,0,18,74.51Z"/><line class="cls-1" x1="16.36" y1="70.15" x2="43.82" y2="53.48"/><line class="cls-1" x1="63.37" y1="52.15" x2="88.49" y2="67.91"/><line class="cls-1" x1="100.89" y1="68.55" x2="127.02" y2="53.56"/></svg>