<svg id="Layer_1" data-name="Layer 1" xmlns="http://www.w3.org/2000/svg" viewBox="0 0 200 200"><defs><style>.cls-1,.cls-2{fill:none;stroke:#ffa73a;stroke-miterlimit:10;stroke-width:3.9px;}.cls-2{stroke-linecap:round;}</style></defs><title>service1</title><path class="cls-1" d="M62.59,130.48H5.93a2.54,2.54,0,0,1-2.54-2.54V31.59a2.54,2.54,0,0,1,2.54-2.54h158.9a2.54,2.54,0,0,1,2.54,2.54v96.35a2.54,2.54,0,0,1-2.54,2.54H108.17"/><circle class="cls-1" cx="85.38" cy="130.51" r="22.79"/><circle class="cls-1" cx="85.38" cy="130.51" r="10.03"/><path class="cls-2" d="M108.23,106.1a32.31,32.31,0,0,0-45.7,0"/><polyline class="cls-2" points="92.82 152.5 107.42 167.09 107.42 152.55 121.96 152.55 107.37 137.96"/><polyline class="cls-2" points="77.94 152.5 63.34 167.09 63.34 152.55 48.8 152.55 63.39 137.96"/><line class="cls-2" x1="120.67" y1="71.36" x2="50.82" y2="71.36"/><line class="cls-2" x1="38.45" y1="55.04" x2="132.92" y2="55.04"/></svg>