<?xml version="1.0" encoding="iso-8859-1"?>
<svg xmlns="http://www.w3.org/2000/svg" xmlns:xlink="http://www.w3.org/1999/xlink" version="1.1" viewBox="0 0 64 64" enable-background="new 0 0 64 64" width="512px" height="512px">
  <g>
    <g>
      <path d="m20,28c-2.209,0-4,1.791-4,4 0,2.209 1.791,4 4,4 2.209,0 4-1.791 4-4 0-2.209-1.791-4-4-4zm0,6c-1.105,0-2-0.895-2-2 0-1.105 0.895-2 2-2 1.105,0 2,0.895 2,2 0,1.105-0.895,2-2,2zm24-6c-2.209,0-4,1.791-4,4 0,2.209 1.791,4 4,4 2.209,0 4-1.791 4-4 0-2.209-1.791-4-4-4zm0,6c-1.105,0-2-0.895-2-2 0-1.105 0.895-2 2-2 1.104,0 2,0.895 2,2 0,1.105-0.895,2-2,2zm-12-6c-2.209,0-4,1.791-4,4 0,2.209 1.791,4 4,4s4-1.791 4-4c0-2.209-1.791-4-4-4zm0,6c-1.105,0-2-0.895-2-2 0-1.105 0.895-2 2-2 1.105,0 2,0.895 2,2 0,1.105-0.895,2-2,2zm0-34c-17.673,0-32,14.327-32,32 0,17.673 14.327,32 32,32 8.476,0 16.172-3.304 21.896-8.684l8.381,8.381c0.016,0.016 0.038,0.021 0.054,0.036 0.179,0.162 0.41,0.267 0.669,0.267 0.552,0 1-0.448 1-1v-31c0-17.673-14.327-32-32-32zm30,60.58l-7.309-7.309c-0.386-0.386-1.225-0.357-1.493-0.076-0.052-0.042-0.002-0.006-0.021,0.013-5.422,5.426-12.899,8.792-21.177,8.792-16.569,0-30-13.431-30-30s13.431-30 30-30 30,13.431 30,30v28.58z" fill="#E2DB1A"/>
    </g>
  </g>
</svg>
