<svg id="Layer_1" data-name="Layer 1" xmlns="http://www.w3.org/2000/svg" viewBox="0 0 200 200"><defs><style>.cls-1{fill:none;stroke:#ffa73a;stroke-linecap:round;stroke-linejoin:round;stroke-width:3.9px;}</style></defs><title>service3</title><polyline class="cls-1" points="2.46 122.24 2.46 176.56 14.25 176.56 14.25 149.4"/><polyline class="cls-1" points="127.9 122.24 127.9 176.56 116.1 176.56 116.1 149.4"/><polyline class="cls-1" points="84.83 122.24 127.9 122.24 65.18 93.84 2.46 122.24 45.52 122.24"/><line class="cls-1" x1="65.18" y1="93.84" x2="65.18" y2="75.47"/><line class="cls-1" x1="80.98" y1="99.76" x2="80.98" y2="75.47"/><line class="cls-1" x1="96.79" y1="108.15" x2="96.79" y2="75.47"/><line class="cls-1" x1="49.37" y1="99.76" x2="49.37" y2="75.47"/><line class="cls-1" x1="33.56" y1="108.15" x2="33.56" y2="75.47"/><path class="cls-1" d="M65.18,37.56h0A31.62,31.62,0,0,0,33.56,69.18v6.29H96.79V69.18A31.62,31.62,0,0,0,65.18,37.56Z"/><polyline class="cls-1" points="74.31 38.34 65.18 23.46 56.04 38.34"/><line class="cls-1" x1="28.12" y1="122.24" x2="28.12" y2="176.56"/><line class="cls-1" x1="102.23" y1="122.24" x2="102.23" y2="176.56"/><path class="cls-1" d="M65.18,132.71h0a18.49,18.49,0,0,0-18.5,18.49v24.32h37V151.2A18.49,18.49,0,0,0,65.18,132.71Z"/></svg>