<svg id="Layer_1" data-name="Layer 1" xmlns="http://www.w3.org/2000/svg" viewBox="0 0 200 200"><defs><style>.cls-1,.cls-2{fill:none;stroke:#ffa73a;stroke-linecap:round;stroke-width:3.9px;}.cls-1{stroke-linejoin:round;}.cls-2{stroke-miterlimit:10;}</style></defs><title>service2</title><polyline class="cls-1" points="74.97 116.09 65.63 125.24 56.28 116.09"/><polyline class="cls-1" points="60.99 120.7 51.74 166.67 65.63 180.67"/><polyline class="cls-1" points="70.26 120.7 79.51 166.67 65.63 180.67"/><path class="cls-2" d="M91.21,159.52,128,151.9l-4.87-24.37a24.08,24.08,0,0,0-8.23-13.76,19.7,19.7,0,0,0-8.07-4.24l-20.8-6a4.46,4.46,0,0,1-1.27-.59,4.51,4.51,0,0,1-2-3.23l-1-8.24a35.51,35.51,0,0,0,12.2-19.18c3.72-.33,6.57-4.46,6.57-9.67,0-4.82-2.42-8.72-5.74-9.55"/><path class="cls-2" d="M36.18,53.09c-3.22.91-5.55,4.76-5.55,9.49,0,5.21,2.84,9.33,6.55,9.67a35.58,35.58,0,0,0,12.2,19.18l-1,8.23a4.53,4.53,0,0,1-2,3.24,4.59,4.59,0,0,1-1.27.59l-20.74,6a19.59,19.59,0,0,0-8.13,4.26,24,24,0,0,0-8.24,13.76L3.23,151.9l32.94,6.82"/><path class="cls-2" d="M94.89,53s1.72-34.48-29.27-34.48S36.18,53.09,36.18,53.09"/><path class="cls-2" d="M38.39,38.27A11.07,11.07,0,0,1,44.54,33c4.2-1.53,8.91-.31,13,1.55,5.87,2.67,11,5.83,17.58,6.55a30.15,30.15,0,0,0,17.65-2.87"/><rect class="cls-2" x="43.73" y="51.89" width="16.38" height="10.49" rx="1.28" ry="1.28"/><rect class="cls-2" x="71.14" y="51.89" width="16.38" height="10.49" rx="1.28" ry="1.28"/><line class="cls-2" x1="60.1" y1="55.75" x2="71.14" y2="55.75"/><line class="cls-2" x1="36.17" y1="51.89" x2="43.73" y2="55.27"/><line class="cls-2" x1="87.52" y1="55.27" x2="94.91" y2="51.89"/><polyline class="cls-1" points="82.6 97.74 65.63 112.93 48.66 97.74"/><line class="cls-1" x1="92.74" y1="138.59" x2="111.94" y2="134.97"/></svg>