<?xml version="1.0" encoding="iso-8859-1"?>
<svg xmlns="http://www.w3.org/2000/svg" xmlns:xlink="http://www.w3.org/1999/xlink" version="1.1" viewBox="0 0 64.005 64.005" enable-background="new 0 0 64.005 64.005" width="512px" height="512px">
  <g>
    <g>
      <path d="m63.419,52.086l-21.512-21.512 19.833-19.834-.006-.006 .498-.5c2.332-2.339 2.332-6.132 0-8.471-2.332-2.339-6.112-2.339-8.444,0l-.512,.514-.012-.012-19.832,19.834-21.512-21.512c-0.782-0.782-2.051-0.782-2.833,2.22045e-16l-8.5,8.5c-0.782,0.782-0.782,2.051 0,2.833l21.512,21.512-14.515,14.515c-0.072,0.072-0.103,0.163-0.161,0.242-0.041,0.027-0.065,0.075-0.103,0.106-0.005,0.004-0.011,0.006-0.015,0.01-0.005,0.005-0.007,0.012-0.012,0.018-0.069,0.063-0.147,0.115-0.196,0.202l-6.944,13.909c-0.04,0.072-0.051,0.151-0.072,0.229-0.009,0.027-0.019,0.052-0.025,0.08-0.015,0.079-0.016,0.155-0.013,0.234 0.001,0.063 0.003,0.124 0.016,0.188 0.014,0.062 0.039,0.119 0.064,0.178 0.02,0.048 0.024,0.099 0.052,0.145 0.011,0.019 0.03,0.029 0.042,0.047 0.038,0.056 0.087,0.101 0.136,0.15 0.049,0.048 0.094,0.098 0.15,0.136 0.018,0.012 0.028,0.031 0.047,0.042 0.046,0.028 0.097,0.032 0.145,0.052 0.059,0.025 0.115,0.05 0.178,0.064 0.063,0.013 0.124,0.015 0.188,0.016 0.079,0.003 0.155,0.002 0.234-0.013 0.028-0.006 0.053-0.017 0.08-0.025 0.077-0.021 0.156-0.032 0.229-0.072l13.909-6.945c0.172-0.096 0.287-0.242 0.373-0.402 0.055-0.045 0.123-0.064 0.174-0.116l14.515-14.515 21.512,21.512c0.782,0.782 2.051,0.782 2.833,0l8.5-8.5c0.781-0.782 0.781-2.051-0.001-2.833zm-12.973-44.162l5.643,5.643-1.522,1.522-5.643-5.643 1.522-1.522zm4.75-4.749c1.554-1.56 4.075-1.56 5.629,0 1.554,1.56 1.554,4.088 0,5.648l-2.313,2.321-.945,.945-5.643-5.643 3.272-3.271zm-53.193,7.328l8.5-8.5 5.03,5.03-2.219,2.219c-0.406,0.406-0.406,1.064 0,1.469 0.406,0.406 1.064,0.406 1.469,0l2.219-2.219 2.531,2.531-2.219,2.219c-0.406,0.406-0.406,1.064 0,1.469 0.406,0.406 1.064,0.406 1.469,0l2.219-2.219 2.531,2.531-2.219,2.219c-0.406,0.406-0.406,1.064 0,1.469 0.406,0.406 1.064,0.406 1.469,0l2.219-2.219 2.531,2.531-2.219,2.219c-0.406,0.406-0.406,1.064 0,1.469 0.406,0.406 1.064,0.406 1.469,0l2.219-2.219 3.012,3.012-8.5,8.5-21.511-21.511zm3.295,46.273l1.963,1.963-3.921,1.958 1.958-3.921zm3.934,.979l-2.95-2.95 2.037-4.081 4.993,4.993-4.08,2.038zm5.798-3.129l-5.65-5.65 38.066-38.052 5.643,5.643-38.059,38.059zm38.472,7.376l-21.512-21.512 8.5-8.5 3.043,3.043-2.219,2.219c-0.406,0.406-0.406,1.064 0,1.469 0.406,0.406 1.064,0.406 1.469,0l2.219-2.219 2.531,2.531-2.219,2.219c-0.406,0.406-0.406,1.064 0,1.469 0.406,0.406 1.064,0.406 1.469,0l2.219-2.219 2.531,2.531-2.219,2.219c-0.406,0.406-0.406,1.064 0,1.469 0.406,0.406 1.064,0.406 1.469,0l2.219-2.219 2.531,2.531-2.219,2.219c-0.406,0.406-0.406,1.064 0,1.469 0.406,0.406 1.064,0.406 1.469,0l2.219-2.219 4.999,4.999-8.499,8.501z" fill="#E2DB1A"/>
    </g>
  </g>
</svg>
