<svg id="Layer_1" data-name="Layer 1" xmlns="http://www.w3.org/2000/svg" viewBox="0 0 500 500"><defs><style>.cls-1{fill:#e2db1a;}.cls-2{fill:#fff;}</style></defs><title>VDS-t-og-logo-green-white</title><rect class="cls-1" width="500" height="500"/><path class="cls-2" d="M223.78,185.05v6.36q0,81.72,0,163.44c0,7.87.36,15.74.56,23.61a40.38,40.38,0,0,0,5.85,19.91c7.5,12.55,18.33,20.28,33.12,21.46,8,.63,16,.57,24,.66a40.85,40.85,0,0,0,7.8-.7c6.22-1.14,11.4-7.09,11-12.91-.43-6.86-4.07-11.24-11.17-12.64a36.38,36.38,0,0,0-6.51-.56c-5.26-.08-10.52,0-15.78-.05a17.91,17.91,0,0,1-15.47-8.36c-2.83-4.18-3.58-8.86-3.58-13.74q0-90.93,0-181.85c0-1.41.16-2.83.26-4.63h5c11.39,0,22.78,0,34.17,0,6.72,0,10.59-3.51,11.35-10.22a23.42,23.42,0,0,0-.08-6.09c-.81-5.39-4.13-8.54-9.56-9.28a32.22,32.22,0,0,0-3.94-.13c-10.8,0-21.61,0-32.42,0-1.54,0-3.08-.12-4.8-.19v-5.77c0-19.72.05-39.44-.06-59.16a17.74,17.74,0,0,0-1.5-7.13c-3.28-7-13.11-9.55-20.94-5.85a11.15,11.15,0,0,0-6.69,9.07,68.2,68.2,0,0,0-.69,9.14c-.06,18.25,0,36.51,0,54.77v5.13H219c-6.86,0-13.73-.06-20.59,0-5.84.07-9.4,3-10.3,8.68a25.5,25.5,0,0,0,0,8.27c1.13,6.26,5.28,9,10.66,8.81s10.51,0,15.77,0Z"/></svg>