<svg id="Layer_1" data-name="Layer 1" xmlns="http://www.w3.org/2000/svg" viewBox="0 0 1751.16 272.64"><defs><style>.cls-1{fill:#fff;}.cls-2{fill:#ffa73a;}</style></defs><title>Tersi-logo-orange-white</title><path class="cls-1" d="M1110.21,165.49H1008.92c0,1.56-.1,3,0,4.35a71.5,71.5,0,0,0,7.18,26.68,54,54,0,0,0,9.27,13.35,33.78,33.78,0,0,0,21.94,10.61c14.94,1.3,27.12-3.72,36.28-15.72a71.66,71.66,0,0,0,7.47-12.55c.24-.51.45-1,.69-1.53,2.68-5.61,7.69-6,12.29-3.66a7.49,7.49,0,0,1,3.53,7.36,10.76,10.76,0,0,1-.66,2.55c-6.67,16.46-17.85,28.48-34.81,34.49a60.76,60.76,0,0,1-35.19,1.67c-12.53-3-22.07-10.53-29.48-20.89a77.91,77.91,0,0,1-13.25-32.59,107.05,107.05,0,0,1-1.31-24.38c.83-14.75,4.39-28.71,12.31-41.36a56.68,56.68,0,0,1,17.71-18.29,50.56,50.56,0,0,1,25.63-7.65,55.8,55.8,0,0,1,23,3.59c10.07,4,17.86,10.79,24,19.53a78.43,78.43,0,0,1,13.1,32.4,105.33,105.33,0,0,1,1.5,19.34C1110.21,163.58,1110.21,164.37,1110.21,165.49Zm-16.87-14.26a4.92,4.92,0,0,0,.12-.8c-.28-2.05-.5-4.12-.86-6.17-1.93-10.82-6-20.74-13.15-29.16-10.3-12.1-23.39-15.86-38.65-11.94-8.42,2.16-14.72,7.48-19.76,14.39a62.25,62.25,0,0,0-11.12,27.51c-.32,2-.93,4-.43,6.17Z"/><path class="cls-1" d="M691.79,235c-8.53-.19-17-.91-25.06-3.7a54.36,54.36,0,0,1-10-4.51c-10.65-6.34-16.16-16-17.69-28.17a45.93,45.93,0,0,1-.41-5.49,7.09,7.09,0,0,1,6.84-7.22,12.89,12.89,0,0,1,3.57.19c3.43.8,5.28,3.41,5.56,7.19a49.93,49.93,0,0,0,1,7.82c1.61,6.87,5.8,11.81,12,15,5,2.56,10.38,3.63,15.88,4.21a69.21,69.21,0,0,0,19.12-.39A37,37,0,0,0,720,212.36c8.49-6.83,9.48-18,6.49-25.9a18.53,18.53,0,0,0-6-8,53.52,53.52,0,0,0-14.3-7.68A204.38,204.38,0,0,0,683.74,164a107.24,107.24,0,0,1-20.9-7.58A52.12,52.12,0,0,1,652,149.41a31.16,31.16,0,0,1-11-22.15,37.49,37.49,0,0,1,1.07-12.61,30.94,30.94,0,0,1,12.15-17.31A46.37,46.37,0,0,1,674.47,89,85.85,85.85,0,0,1,712,90.87a40.28,40.28,0,0,1,18.49,10.63,35,35,0,0,1,9.79,22.86,7.06,7.06,0,0,1-4.24,7.18,9.49,9.49,0,0,1-6.95.9,7.35,7.35,0,0,1-5.63-6.41c-.2-1.42-.38-2.85-.69-4.25A22.37,22.37,0,0,0,710.3,106a39.34,39.34,0,0,0-12.84-3.69,61,61,0,0,0-19.81.35,37.78,37.78,0,0,0-10.36,3.63c-15,7.88-12,25.62-3.07,32.53a45.13,45.13,0,0,0,8,4.83c7.8,3.77,16.11,6.09,24.5,8.14s16.54,4.36,24.22,8.2a67.69,67.69,0,0,1,9.42,5.68,31.6,31.6,0,0,1,12.75,20.44,43.73,43.73,0,0,1-.39,19.25c-2.66,10.25-9.29,17.33-18.24,22.44a53.37,53.37,0,0,1-20.71,6.34C699.78,234.57,695.77,234.7,691.79,235Z"/><path class="cls-1" d="M1165.86,113.52c.49-.69,1-1.37,1.46-2.08,7.89-11.88,18.7-19.57,32.76-22.32,10.43-2,20.89-2.1,31,1.69,13.87,5.23,22.75,15,25.77,29.74a42.33,42.33,0,0,1,.72,8.34q.06,48.35,0,96.7a19.23,19.23,0,0,1-.08,2.15,7.83,7.83,0,0,1-10.56,6.64c-3.15-1-4.46-3.46-4.9-6.49a25.25,25.25,0,0,1-.11-3.59q0-47.16,0-94.3a37.08,37.08,0,0,0-.72-8.09,26.11,26.11,0,0,0-22.24-19.74c-14.58-1.85-27.35,2.24-38.31,12A69.77,69.77,0,0,0,1166,133a7.5,7.5,0,0,0-.65,3.44q0,40.08,0,80.14c0,3.28,0,6.56,0,9.84-.09,4.17-2.18,7.08-5.76,8.22a7.45,7.45,0,0,1-9.75-6.42,21.13,21.13,0,0,1-.06-2.39V98.91c0-.32,0-.64,0-1,0-4.91,3-8,7.59-8.06a7.79,7.79,0,0,1,8,7.85c.11,3.92,0,7.84,0,11.76v3.81Z"/><path class="cls-1" d="M795.67,160.58c0,11.3,1.22,21.49,4.92,31.27a49.17,49.17,0,0,0,11.21,18c6.52,6.46,14.45,9.76,23.52,10.65a79.67,79.67,0,0,0,20-1c13-2,21.76-9.33,26.45-21.57.31-.83.61-1.65.91-2.48,1.23-3.4,3.77-5,7.25-5.35a10.55,10.55,0,0,1,5.62.84,6.28,6.28,0,0,1,3.47,8,8.82,8.82,0,0,1-.41,1.12,69.52,69.52,0,0,1-13.95,20.23c-7,6.88-15.61,10.77-25.09,12.75a82.18,82.18,0,0,1-33.57.29,51.6,51.6,0,0,1-33.37-22.35,73.1,73.1,0,0,1-11.11-28.11,114,114,0,0,1-1.78-25.55c.56-14.4,3.49-28.2,10.82-40.82,6.68-11.52,15.88-20.16,28.5-24.86A60.81,60.81,0,0,1,839,87.91a73.67,73.67,0,0,1,26.88,3.87,49.94,49.94,0,0,1,22.7,15.86,49.45,49.45,0,0,1,6.76,12.09c2.41,5.76-1.66,10.7-7.32,11.2-3.42.3-7.63-1-8.92-5.93a29.51,29.51,0,0,0-2.2-5.56c-3.65-7.37-9.26-12.56-17.2-15a59.11,59.11,0,0,0-28-1.93c-9.94,1.74-17.71,7-23.69,15a60.29,60.29,0,0,0-10.36,23.26A88.61,88.61,0,0,0,795.67,160.58Z"/><path class="cls-1" d="M1615.75,158.82c.17,13.25,1.32,23.61,5.18,33.51a50.73,50.73,0,0,0,9.57,15.95c6.71,7.4,15.13,11.26,25,12.18A76.09,76.09,0,0,0,1677.9,219c11.22-2.3,18.87-8.92,23.35-19.35.59-1.39,1.09-2.83,1.64-4.24,2.17-5.55,10.27-7.33,14.71-3.31a6.82,6.82,0,0,1,1.24,7.78c-8.51,18.72-22.15,31-43.15,33.89a90.14,90.14,0,0,1-25.09.32c-16.81-2.35-29.91-10.6-39-25.05a75.71,75.71,0,0,1-10.23-28.2,117.54,117.54,0,0,1-1.29-26.29c.85-14.41,4.26-28.11,12.09-40.44,8.93-14,21.46-22.8,38-25.33,13.11-2,26-1,38.37,4,9.52,3.84,17.35,9.89,22.82,18.67a78.14,78.14,0,0,1,4.08,8.38c2.66,5.66-1.77,10.67-7.34,11.11-3.64.28-7.72-1.28-8.87-6a25.77,25.77,0,0,0-2-5.12c-3.69-7.66-9.46-13-17.67-15.49a59.16,59.16,0,0,0-27.72-1.8c-10.13,1.79-18,7.21-24,15.44a60.5,60.5,0,0,0-10.82,27.11C1616.31,150.51,1616,156,1615.75,158.82Z"/><path class="cls-1" d="M1462.66,106h-7.11c-2.4,0-4.8.08-7.19-.06a6.93,6.93,0,0,1-6.82-6.93c0-3.9,2.81-6.62,7.18-6.75,3.67-.11,7.35,0,11,0h2.9V89.19q0-14,0-28.07a27.14,27.14,0,0,1,2.25-11.43c3.5-7.67,9.4-12.29,17.81-13.13,5.07-.51,10.21-.33,15.32-.41a8.76,8.76,0,0,1,2.12.38,6.26,6.26,0,0,1,5.2,6.29,6.73,6.73,0,0,1-4.8,6.93,14,14,0,0,1-3.53.53c-2.56.08-5.12,0-7.68,0-6.25.09-10.8,4.17-10.92,10.38-.2,10.23-.06,20.46-.06,30.7a4.3,4.3,0,0,0,.22.74c.74,0,1.58.12,2.43.13,5.35,0,10.71,0,16.07,0a12.29,12.29,0,0,1,2.84.3c3.8.93,5.66,3.39,5.42,7a7,7,0,0,1-6.44,6.34,27.62,27.62,0,0,1-2.88.07h-15.83c-.47,0-.94.08-1.71.15-.06.94-.17,1.86-.17,2.77q0,16.92,0,33.83,0,40.9,0,81.8a16.88,16.88,0,0,1-.48,4.5,7.83,7.83,0,0,1-9.81,5.41,6.37,6.37,0,0,1-4.75-4.64,20.22,20.22,0,0,1-.57-5q0-57.57,0-115.15Z"/><path class="cls-1" d="M1310.13,106h-6c-2.88,0-5.76,0-8.63,0-2.65-.06-4.32-1.21-4.83-3.79a17.31,17.31,0,0,1-.11-5.92c.43-2.67,2.32-4,5.18-4,3.76,0,7.52,0,11.28,0H1310c.06-1.06.15-2,.15-2.89q0-15.12,0-30.24c0-.8,0-1.6,0-2.4,0-2.94.55-5.65,3.45-7.12a9.33,9.33,0,0,1,9.18.22,6.7,6.7,0,0,1,3.28,5.55,24,24,0,0,1,0,2.4V92.13c1,.05,1.83.13,2.67.13h17.76c.64,0,1.28,0,1.92,0,3,.25,4.72,1.74,5.3,4.64a11.93,11.93,0,0,1,.19,3.1c-.24,4-2.3,6-6.29,6-6.16,0-12.32,0-18.48,0h-2.88c-.07,1.18-.18,2.18-.18,3.17q0,26.88,0,53.76,0,22.42,0,44.87a20.39,20.39,0,0,0,.27,4.06c1.12,5.4,5.37,8.74,11.26,8.87,3,.07,6.08,0,9.12,0a12.3,12.3,0,0,1,2.85.26,6.53,6.53,0,0,1,5.08,6.93,7,7,0,0,1-5.86,6.63,12.88,12.88,0,0,1-2.15.15c-4.24,0-8.48.08-12.72,0-11.8-.25-20.66-7.43-23.14-18.82a34.13,34.13,0,0,1-.64-7.14q-.06-49.68,0-99.34Z"/><path class="cls-1" d="M1559,161q0,31.91,0,63.81a17.3,17.3,0,0,1-.29,3.81,7.78,7.78,0,0,1-8.08,6.11c-4.12-.1-6.58-2.25-7.31-6.49a16,16,0,0,1-.26-2.85q0-64.65,0-129.3c0-2.94.57-5.54,3.3-7.24a9.31,9.31,0,0,1,10,.34,6.5,6.5,0,0,1,2.67,4.89c.09.95,0,1.91,0,2.87Q1559,129,1559,161Z"/><path class="cls-1" d="M954.11,160.75q0,32.38,0,64.77c0,2.85-.62,5.36-2.86,7.31a7.68,7.68,0,0,1-12.82-4.26,16.81,16.81,0,0,1-.25-3.33q0-51.93,0-103.87c0-8.48.22-17-.09-25.43-.25-6.93,6.11-9.67,11.34-7.75a6.69,6.69,0,0,1,4.65,6.11c.08,1,0,1.92,0,2.88Q954.12,129,954.11,160.75Z"/><path class="cls-1" d="M1404.56,160.93v63.32c0,1,0,2.08-.06,3.12a7.78,7.78,0,0,1-7.9,7.4c-4.45,0-7.35-2.58-7.8-7.08-.07-.71-.06-1.43-.06-2.15q0-64.77,0-129.53c0-3.1.64-5.73,3.56-7.29a8.86,8.86,0,0,1,9.53.45,5.7,5.7,0,0,1,2.67,4.6c.07,1.12.09,2.24.09,3.35Z"/><path class="cls-1" d="M1384,49.48a42.56,42.56,0,0,1,.69-4.24,11.36,11.36,0,0,1,10.5-9.05c5.49-.5,10.12,1.75,12.65,6.81a14,14,0,0,1,1.23,9.34c-2,9.48-11,12.33-18.12,9.15-4.53-2-6.4-6-6.8-10.79,0-.4,0-.8,0-1.2Z"/><path class="cls-1" d="M1538.33,49.63c.18-1.34.25-2.71.56-4,1.49-6.15,5.86-9.54,12.1-9.48A12.34,12.34,0,0,1,1563.2,46c1,4.73.21,9.06-3.08,12.74a13,13,0,0,1-14.12,3.1,12.09,12.09,0,0,1-7.52-11c0-.4,0-.8,0-1.2Z"/><path class="cls-1" d="M933.48,49.3a38.28,38.28,0,0,1,.64-4c1.52-5.9,5.82-9.39,12.57-9.16a12.31,12.31,0,0,1,11.76,10.42c.61,3.81.25,7.48-2,10.78-3.17,4.57-8.75,6.45-14.45,4.82-4.69-1.33-8-5.81-8.31-11.16,0-.56,0-1.12,0-1.68Z"/><path class="cls-2" d="M387.51,198.68c2.55,12.4,9.49,21.62,20.64,27.67,8.49,4.61,17.71,6.54,27.21,7.25a121.39,121.39,0,0,0,14.28.27,74.19,74.19,0,0,0,24.9-5c8.85-3.58,16.19-9.2,21.23-17.39,6.07-9.87,6.7-20.66,4.41-31.71-2.35-11.39-9.35-19.36-19.21-25.06-8.49-4.91-17.7-8-27.15-10.43-10.12-2.56-20.23-5.12-29.8-9.39a36.21,36.21,0,0,1-11.51-7.5,21,21,0,0,1,4.37-32.9c6.56-3.83,13.78-5.11,21.23-5.38,2.93-.1,5.89.21,8.84.33a45.25,45.25,0,0,1,14.24,2.83c10.08,3.81,16.09,10.9,17.23,21.82a9,9,0,0,0,2,5.52c3.34,3.68,8.32,4.3,12.78,1.56a8.1,8.1,0,0,0,4.13-8.1c-.11-1.38-.28-2.76-.52-4.13a37.46,37.46,0,0,0-13.54-23.38c-7.79-6.35-17-9.22-26.74-10.8a102.15,102.15,0,0,0-20.81-1c-9.2.38-18.1,2.21-26.34,6.58-7.22,3.83-13.16,9-16.89,16.44-3.57,7.13-4.16,14.66-3.26,22.37a32.56,32.56,0,0,0,7.54,17.46,44,44,0,0,0,11.63,9.57c8.54,5,17.83,8.12,27.32,10.75,6.69,1.86,13.39,3.67,20,5.78a70.07,70.07,0,0,1,17.45,8.09c7,4.64,10.53,11.12,10.46,19.54,0,6.92-2.24,12.9-7.42,17.71a36.12,36.12,0,0,1-15.44,8.31c-7.33,2-14.8,1.92-22.28,1.6a54.67,54.67,0,0,1-16.82-3.2c-9-3.33-14.87-9.42-16.82-18.95-.48-2.37-.56-4.82-.92-7.22a13.87,13.87,0,0,0-1-4.24c-1.83-3.56-5.77-4.79-10.18-3.85a7.64,7.64,0,0,0-6.37,8.06A63,63,0,0,0,387.51,198.68Z"/><path class="cls-2" d="M550.85,45.66c5.44,2,10.58,1.29,15-2.85,5.57-5.24,5.92-14.89.59-21.07-4.77-5.53-14.51-5.82-19.71-.66-3.09,3.07-4.19,6.9-4.23,11.13,0,.52,0,1,0,1.56C543,39.31,545.49,43.67,550.85,45.66Z"/><path class="cls-2" d="M297.49,85.6V223.48c0,.69,0,1.39,0,2.09a8,8,0,0,0,7.9,8.09,8.56,8.56,0,0,0,9.19-7.08,28.18,28.18,0,0,0,.36-4.4q0-52.49,0-105a8.75,8.75,0,0,1,.8-4.28,41,41,0,0,1,17-17.12c6.75-3.65,14.06-4.79,21.58-5.13,3.25-.15,5.25-1.6,5.92-4.81a14,14,0,0,0-.55-8.47,5.43,5.43,0,0,0-5.22-3.63,42.93,42.93,0,0,0-31.65,12.39c-2.66,2.56-5.05,5.41-7.92,8.5,0-3.53.08-6.58,0-9.62-.08-2.53-.28-5.16-2.42-6.9-3.28-2.65-7-2.92-10.8-1.23-3.3,1.46-4.42,4.22-4.24,7.65C297.5,84.91,297.49,85.26,297.49,85.6Z"/><path class="cls-2" d="M557.31,73.46c-4.19-.47-9.34,2-9.8,7.2-.09.94-.15,1.9-.15,2.85q0,69.59,0,139.18a26,26,0,0,0,.36,4.13c1.21,7.46,8.93,8.46,13,5.9a9.35,9.35,0,0,0,4.51-8.54q-.08-35.38,0-70.76c0-23.76,0-47.53,0-71.29C565.22,76.73,561.54,73.93,557.31,73.46Z"/><path class="cls-2" d="M36.19,93.83c3.13-.12,6.27,0,9.4,0H51.1V97.6q0,48.71,0,97.41c0,4.69.21,9.38.33,14.07A24.06,24.06,0,0,0,54.94,221c4.47,7.48,10.92,12.09,19.74,12.79,4.76.38,9.55.34,14.32.4a24.33,24.33,0,0,0,4.66-.42c3.7-.68,6.79-4.22,6.57-7.69-.26-4.09-2.43-6.7-6.66-7.54a21.86,21.86,0,0,0-3.88-.33c-3.14,0-6.27,0-9.4,0a10.71,10.71,0,0,1-9.23-5,14,14,0,0,1-2.13-8.2q0-54.18,0-108.38c0-.85.09-1.69.15-2.76h3c6.79,0,13.58,0,20.37,0,4,0,6.3-2.1,6.76-6.1a14.23,14.23,0,0,0,0-3.63,6.11,6.11,0,0,0-5.7-5.53,18.24,18.24,0,0,0-2.34-.07H71.79c-.92,0-1.83-.07-2.86-.11V74.9c0-11.75,0-23.5,0-35.25A10.45,10.45,0,0,0,68,35.4c-2-4.18-7.81-5.7-12.48-3.49a6.66,6.66,0,0,0-4,5.41,41.24,41.24,0,0,0-.41,5.44q0,16.32,0,32.65v3H48.27c-4.1,0-8.19,0-12.28,0-3.48,0-5.6,1.76-6.14,5.17a15.1,15.1,0,0,0,0,4.93C30.52,92.31,33,94,36.19,93.83Z"/><path class="cls-2" d="M146.09,213.56a53.87,53.87,0,0,0,30.16,18.86,65.56,65.56,0,0,0,17.8,1.45A66.65,66.65,0,0,0,211.2,231a61,61,0,0,0,30.17-20.92,68.66,68.66,0,0,0,10-17.62c1.25-3.25,1.13-6.63-1.47-9.26a9.57,9.57,0,0,0-9.53-2.78c-3,.76-4.78,3-6,5.71a75.35,75.35,0,0,1-9.12,15.46c-5.69,7.24-12.71,12.54-21.7,15A50.36,50.36,0,0,1,185.66,218a33.92,33.92,0,0,1-16.53-5.85c-8.47-5.78-14-13.92-18.12-23.08a78.75,78.75,0,0,1-6.14-23.6c-.26-2.19-.32-4.41-.49-6.86H254.89c0-1.29,0-2.15,0-3-.29-5.37-.35-10.77-.94-16.1A86.21,86.21,0,0,0,241,102.11a62.09,62.09,0,0,0-19.34-19.8c-13.94-8.74-29.13-10.41-44.94-7.15C163,78,152.3,85.69,144,96.78c-11.06,14.74-16,31.62-17.11,49.78a116.42,116.42,0,0,0,1.47,27.52C130.94,188.74,136.54,202.05,146.09,213.56Zm-.23-78.16c2.15-12.6,6.93-24,15.57-33.6a37,37,0,0,1,23.72-12.34,39.77,39.77,0,0,1,24.44,4.42A42,42,0,0,1,223.84,107,69.81,69.81,0,0,1,236,140.17c.08.76.19,1.51.31,2.57H145.46C144.77,140.14,145.46,137.75,145.86,135.4Z"/></svg>