<svg id="Layer_1" data-name="Layer 1" xmlns="http://www.w3.org/2000/svg" viewBox="0 0 1751.16 272.64"><defs><style>.cls-1{fill:#fff;}.cls-2{fill:#e2db1a;}</style></defs><title>VDS-Tersi-logo-green-white</title><rect class="cls-1" x="17.99" y="13.43" width="558.89" height="244.29"/><path class="cls-1" d="M1144.35,167.89H1043.06c0,1.56-.1,3,0,4.36a71.66,71.66,0,0,0,7.19,26.67,54,54,0,0,0,9.27,13.35,33.76,33.76,0,0,0,21.93,10.61c15,1.31,27.12-3.72,36.29-15.72a72.29,72.29,0,0,0,7.47-12.55c.24-.51.45-1,.69-1.53,2.68-5.61,7.69-6,12.28-3.66a7.49,7.49,0,0,1,3.54,7.36,11.12,11.12,0,0,1-.66,2.55c-6.67,16.47-17.85,28.48-34.81,34.49a60.76,60.76,0,0,1-35.19,1.67c-12.53-3-22.07-10.53-29.48-20.89A77.91,77.91,0,0,1,1028.34,182a107.06,107.06,0,0,1-1.32-24.38c.84-14.75,4.4-28.71,12.32-41.36A56.85,56.85,0,0,1,1057,98a50.72,50.72,0,0,1,25.64-7.65,56,56,0,0,1,23,3.59c10.07,4,17.85,10.79,24,19.53a78.41,78.41,0,0,1,13.09,32.4,104.46,104.46,0,0,1,1.5,19.34C1144.34,166,1144.35,166.77,1144.35,167.89Zm-16.87-14.26a3.56,3.56,0,0,0,.11-.8c-.27-2.05-.49-4.12-.85-6.16-1.93-10.83-6-20.75-13.15-29.17-10.31-12.1-23.39-15.86-38.65-11.94-8.42,2.16-14.72,7.48-19.76,14.39a62.25,62.25,0,0,0-11.12,27.51c-.32,2-.93,4-.43,6.17Z"/><path class="cls-1" d="M725.93,237.37c-8.53-.19-17-.91-25.06-3.7a54.36,54.36,0,0,1-10-4.51c-10.65-6.34-16.16-16-17.7-28.16a44.09,44.09,0,0,1-.4-5.5,7.09,7.09,0,0,1,6.84-7.22,12.89,12.89,0,0,1,3.57.19c3.42.8,5.28,3.41,5.55,7.19a51.16,51.16,0,0,0,1,7.82c1.61,6.87,5.79,11.81,12,15,5,2.56,10.38,3.63,15.88,4.21a69.59,69.59,0,0,0,19.12-.38,37.1,37.1,0,0,0,17.37-7.57c8.49-6.83,9.48-17.95,6.49-25.9a18.53,18.53,0,0,0-6-8,53.42,53.42,0,0,0-14.31-7.68,201.38,201.38,0,0,0-22.45-6.77,107.69,107.69,0,0,1-20.9-7.59,52.12,52.12,0,0,1-10.82-7.05,31.1,31.1,0,0,1-11-22.15,37.41,37.41,0,0,1,1.07-12.6,30.88,30.88,0,0,1,12.15-17.32,46.33,46.33,0,0,1,20.21-8.3,85.69,85.69,0,0,1,37.52,1.84,40.16,40.16,0,0,1,18.5,10.62,35,35,0,0,1,9.79,22.86,7.07,7.07,0,0,1-4.24,7.18,9.51,9.51,0,0,1-7,.9,7.37,7.37,0,0,1-5.63-6.4c-.19-1.43-.37-2.86-.68-4.26a22.37,22.37,0,0,0-12.46-15.8,39.34,39.34,0,0,0-12.84-3.69,61,61,0,0,0-19.81.35,37.78,37.78,0,0,0-10.36,3.63c-15,7.88-12,25.62-3.08,32.53a45.86,45.86,0,0,0,8,4.83c7.8,3.77,16.12,6.09,24.5,8.14s16.55,4.36,24.23,8.2a67.69,67.69,0,0,1,9.42,5.68,31.6,31.6,0,0,1,12.75,20.44,43.63,43.63,0,0,1-.4,19.26c-2.66,10.24-9.28,17.32-18.23,22.43a53.37,53.37,0,0,1-20.71,6.34C733.91,237,729.91,237.1,725.93,237.37Z"/><path class="cls-1" d="M1200,115.92c.49-.69,1-1.37,1.45-2.08,7.9-11.88,18.71-19.57,32.77-22.32,10.43-2,20.89-2.1,31,1.69,13.87,5.23,22.75,15,25.77,29.74a41.58,41.58,0,0,1,.71,8.34q.08,48.35,0,96.7a17.1,17.1,0,0,1-.09,2.15,7.82,7.82,0,0,1-10.55,6.64c-3.15-1-4.47-3.46-4.9-6.49a25.25,25.25,0,0,1-.12-3.59q0-47.14,0-94.3a36.48,36.48,0,0,0-.73-8.09A26.1,26.1,0,0,0,1253,104.57c-14.58-1.85-27.35,2.24-38.31,12a69.77,69.77,0,0,0-14.62,18.88,7.37,7.37,0,0,0-.65,3.44q0,40.08,0,80.14c0,3.28,0,6.56,0,9.84-.09,4.17-2.18,7.08-5.76,8.22a7.45,7.45,0,0,1-9.75-6.42,21.13,21.13,0,0,1-.06-2.39q0-63.46,0-126.93v-1c.05-4.91,3-8,7.6-8.06a7.8,7.8,0,0,1,8,7.85c.11,3.92,0,7.84,0,11.76v3.81Z"/><path class="cls-1" d="M829.81,163c0,11.31,1.22,21.49,4.92,31.27a49.17,49.17,0,0,0,11.21,18c6.52,6.46,14.44,9.76,23.52,10.65a80.08,80.08,0,0,0,20-1c13-2,21.76-9.34,26.46-21.58.31-.82.61-1.65.91-2.48,1.22-3.4,3.77-5,7.25-5.35a10.55,10.55,0,0,1,5.62.84,6.28,6.28,0,0,1,3.47,8,8.82,8.82,0,0,1-.41,1.12,69.72,69.72,0,0,1-13.95,20.23c-7,6.88-15.61,10.77-25.09,12.75a82.18,82.18,0,0,1-33.57.29,51.6,51.6,0,0,1-33.37-22.35c-5.82-8.54-9.22-18-11.11-28.11a114.62,114.62,0,0,1-1.79-25.55c.57-14.4,3.5-28.2,10.83-40.82,6.68-11.52,15.88-20.16,28.5-24.86a60.76,60.76,0,0,1,19.93-3.68,73.7,73.7,0,0,1,26.88,3.87A49.94,49.94,0,0,1,922.76,110a49.42,49.42,0,0,1,6.75,12.09c2.42,5.76-1.65,10.7-7.31,11.2-3.42.3-7.63-1-8.92-5.93a29.51,29.51,0,0,0-2.2-5.56c-3.65-7.37-9.26-12.56-17.2-15a59,59,0,0,0-28-1.92c-9.94,1.73-17.71,7-23.69,15a60.14,60.14,0,0,0-10.36,23.26A88,88,0,0,0,829.81,163Z"/><path class="cls-1" d="M1649.89,161.22c.17,13.25,1.31,23.61,5.18,33.51a50.89,50.89,0,0,0,9.57,16c6.71,7.39,15.13,11.25,25,12.17A76.09,76.09,0,0,0,1712,221.4c11.22-2.3,18.87-8.91,23.34-19.35.6-1.39,1.1-2.83,1.65-4.24,2.17-5.54,10.27-7.33,14.71-3.31a6.82,6.82,0,0,1,1.24,7.78c-8.52,18.72-22.15,31-43.15,33.89a90.14,90.14,0,0,1-25.09.32c-16.81-2.35-29.92-10.6-39-25.05a75.87,75.87,0,0,1-10.22-28.2,117.54,117.54,0,0,1-1.29-26.29c.85-14.41,4.26-28.11,12.09-40.43,8.93-14.06,21.46-22.81,38.05-25.33,13.11-2,26-1,38.37,4,9.51,3.84,17.34,9.89,22.82,18.67a80.08,80.08,0,0,1,4.08,8.38c2.66,5.66-1.77,10.68-7.35,11.11-3.63.29-7.72-1.28-8.86-6a26.65,26.65,0,0,0-2-5.12c-3.69-7.66-9.47-13-17.67-15.49a59.2,59.2,0,0,0-27.73-1.8c-10.12,1.8-18,7.21-24,15.44a60.51,60.51,0,0,0-10.83,27.11C1650.45,152.91,1650.16,158.43,1649.89,161.22Z"/><path class="cls-1" d="M1496.79,108.45h-7.1c-2.4,0-4.8.08-7.19-.06a6.93,6.93,0,0,1-6.82-6.93c0-3.9,2.81-6.62,7.18-6.75,3.67-.11,7.35,0,11,0h2.9V91.59q0-14,0-28.07A27,27,0,0,1,1499,52.09c3.5-7.67,9.4-12.29,17.81-13.13,5.07-.5,10.21-.32,15.32-.41a8.6,8.6,0,0,1,2.11.38,6.27,6.27,0,0,1,5.21,6.29,6.75,6.75,0,0,1-4.8,6.93,14,14,0,0,1-3.53.53c-2.56.08-5.12,0-7.68,0-6.26.09-10.8,4.17-10.92,10.38-.21,10.23-.06,20.46-.06,30.7a4.3,4.3,0,0,0,.22.74c.74,0,1.58.13,2.43.13,5.35,0,10.71,0,16.07,0a12.29,12.29,0,0,1,2.84.3c3.8.93,5.66,3.39,5.41,7a7,7,0,0,1-6.43,6.34,27.69,27.69,0,0,1-2.88.07h-15.83c-.48,0-.95.08-1.71.15-.06.94-.17,1.86-.17,2.77q0,16.92,0,33.83,0,40.91,0,81.8a16.88,16.88,0,0,1-.47,4.5,7.83,7.83,0,0,1-9.81,5.41,6.36,6.36,0,0,1-4.75-4.64,20.22,20.22,0,0,1-.57-5q0-57.57,0-115.15Z"/><path class="cls-1" d="M1344.27,108.45h-6c-2.88,0-5.76,0-8.64,0-2.65-.06-4.32-1.21-4.82-3.79a17.06,17.06,0,0,1-.11-5.92c.43-2.67,2.31-4,5.18-4,3.76-.05,7.52,0,11.28,0h2.92c.06-1.06.14-2,.15-2.89q0-15.12,0-30.24c0-.8,0-1.6,0-2.4,0-2.94.54-5.65,3.45-7.12a9.33,9.33,0,0,1,9.18.22,6.67,6.67,0,0,1,3.27,5.55,21.32,21.32,0,0,1,0,2.4q0,15.6,0,31.19v3.16c1,0,1.83.13,2.67.13h17.76c.64,0,1.28,0,1.92,0,3,.25,4.72,1.74,5.3,4.64a11.93,11.93,0,0,1,.19,3.1c-.25,4-2.3,6-6.29,6-6.16.06-12.32,0-18.48,0h-2.88c-.07,1.17-.19,2.17-.19,3.17q0,26.87,0,53.75,0,22.42,0,44.87a20.39,20.39,0,0,0,.27,4.06c1.12,5.4,5.37,8.74,11.26,8.87,3,.07,6.08,0,9.12,0a12.3,12.3,0,0,1,2.85.26,6.53,6.53,0,0,1,5.08,6.93A7,7,0,0,1,1383,237a12.88,12.88,0,0,1-2.15.15c-4.24,0-8.48.08-12.72,0-11.8-.25-20.67-7.43-23.14-18.82a34.13,34.13,0,0,1-.64-7.14q-.06-49.66,0-99.34Z"/><path class="cls-1" d="M1593.08,163.44q0,31.91,0,63.81a17.3,17.3,0,0,1-.29,3.81,7.78,7.78,0,0,1-8.08,6.11c-4.12-.1-6.58-2.25-7.32-6.48a17.17,17.17,0,0,1-.25-2.86q0-64.65,0-129.3c0-2.94.57-5.54,3.3-7.24a9.31,9.31,0,0,1,10,.34,6.51,6.51,0,0,1,2.67,4.89c.08,1,0,1.91,0,2.87Z"/><path class="cls-1" d="M988.24,163.15q0,32.39,0,64.77c0,2.85-.62,5.36-2.86,7.32A7.68,7.68,0,0,1,972.58,231a16.82,16.82,0,0,1-.26-3.33q0-51.93,0-103.87c0-8.48.21-17-.09-25.43-.25-6.93,6.11-9.67,11.34-7.75a6.68,6.68,0,0,1,4.64,6.11c.08,1,0,1.92,0,2.88Z"/><path class="cls-1" d="M1438.7,163.33v63.32c0,1,0,2.08-.06,3.12a7.79,7.79,0,0,1-7.9,7.4c-4.46,0-7.35-2.58-7.8-7.08a19.23,19.23,0,0,1-.06-2.15q0-64.77,0-129.53c0-3.1.64-5.73,3.56-7.29a8.85,8.85,0,0,1,9.53.46,5.67,5.67,0,0,1,2.67,4.59c.07,1.12.09,2.24.09,3.36Z"/><path class="cls-1" d="M1418.09,51.88a42.56,42.56,0,0,1,.69-4.24,11.36,11.36,0,0,1,10.5-9c5.48-.49,10.11,1.75,12.65,6.81a14,14,0,0,1,1.23,9.34c-2,9.48-11,12.33-18.12,9.15-4.53-2-6.4-6-6.8-10.79,0-.4,0-.8,0-1.2Z"/><path class="cls-1" d="M1572.47,52a38.48,38.48,0,0,1,.56-4c1.49-6.15,5.86-9.54,12.1-9.48a12.34,12.34,0,0,1,12.21,9.89c1,4.73.21,9.06-3.08,12.74a13,13,0,0,1-14.12,3.1,12.08,12.08,0,0,1-7.52-11c0-.4,0-.8,0-1.2Z"/><path class="cls-1" d="M967.62,51.7c.2-1.33.3-2.7.63-4,1.53-5.9,5.82-9.39,12.58-9.16A12.29,12.29,0,0,1,992.58,49c.61,3.81.25,7.48-2,10.78-3.17,4.57-8.74,6.45-14.44,4.82-4.69-1.33-8-5.81-8.31-11.16,0-.56,0-1.12,0-1.68Z"/><path class="cls-2" d="M2.49-1H614.72c.09.76.19,1.36.21,2,0,.8,0,1.6,0,2.4v264.9c0,1.12,0,2.24,0,3.36H2.49ZM260.76,167.09c0-1.19,0-2,0-2.77-.26-4.93-.32-9.89-.86-14.79A79.47,79.47,0,0,0,248,115.22,57.13,57.13,0,0,0,230.24,97c-12.8-8-26.77-9.56-41.29-6.56-12.61,2.59-22.46,9.67-30.11,19.86-10.16,13.54-14.7,29.06-15.72,45.74a107.17,107.17,0,0,0,1.35,25.29c2.39,13.47,7.54,25.7,16.32,36.28A49.5,49.5,0,0,0,188.5,235a60.23,60.23,0,0,0,16.36,1.33,61.25,61.25,0,0,0,15.76-2.65,56,56,0,0,0,27.71-19.22,63,63,0,0,0,9.17-16.2c1.15-3,1-6.09-1.35-8.51a8.8,8.8,0,0,0-8.76-2.55c-2.77.69-4.39,2.73-5.54,5.24a69.15,69.15,0,0,1-8.37,14.22c-5.23,6.65-11.68,11.52-19.94,13.81a46.49,46.49,0,0,1-16.4,1.24A31.28,31.28,0,0,1,182,216.29c-7.79-5.31-12.83-12.79-16.65-21.21a72.44,72.44,0,0,1-5.65-21.68c-.23-2-.29-4.05-.45-6.31Zm210.18,29.26c0,6.36-2.06,11.85-6.82,16.28a33.11,33.11,0,0,1-14.19,7.63c-6.73,1.83-13.6,1.77-20.47,1.47A50.18,50.18,0,0,1,414,218.79c-8.25-3.06-13.66-8.66-15.45-17.42-.45-2.17-.51-4.43-.85-6.63a12.53,12.53,0,0,0-.94-3.89c-1.69-3.27-5.31-4.41-9.35-3.55a7,7,0,0,0-5.86,7.41,58.38,58.38,0,0,0,1.07,9.24c2.35,11.41,8.73,19.87,19,25.43,7.8,4.23,16.28,6,25,6.67a112.46,112.46,0,0,0,13.12.24,68.18,68.18,0,0,0,22.88-4.56,39.65,39.65,0,0,0,19.51-16c5.58-9.07,6.15-19,4.05-29.13-2.16-10.47-8.59-17.79-17.65-23-7.81-4.51-16.27-7.39-25-9.59-9.29-2.35-18.59-4.69-27.38-8.62a33.39,33.39,0,0,1-10.57-6.89,19.34,19.34,0,0,1,4-30.24c6-3.52,12.67-4.69,19.51-4.94,2.7-.09,5.41.19,8.12.3a42,42,0,0,1,13.09,2.6c9.26,3.5,14.78,10,15.83,20a8.36,8.36,0,0,0,1.83,5.08c3.07,3.38,7.65,3.95,11.75,1.43a7.47,7.47,0,0,0,3.79-7.44c-.1-1.27-.26-2.54-.48-3.79A34.42,34.42,0,0,0,470.61,100C463.45,94.21,455,91.57,446,90.11a94.25,94.25,0,0,0-19.13-.89c-8.44.36-16.63,2-24.19,6-6.65,3.52-12.1,8.24-15.53,15.11-3.28,6.55-3.82,13.46-3,20.55a30,30,0,0,0,6.93,16,40.25,40.25,0,0,0,10.68,8.79c7.85,4.61,16.39,7.46,25.1,9.88,6.15,1.71,12.31,3.37,18.39,5.31a64.33,64.33,0,0,1,16,7.43C467.78,182.66,471,188.61,470.94,196.35ZM73.5,107.59v3.48q0,44.76,0,89.52c0,4.31.19,8.62.3,12.93A22,22,0,0,0,77,224.42c4.11,6.88,10,11.11,18.14,11.76,4.37.35,8.77.31,13.16.36a21.88,21.88,0,0,0,4.27-.38c3.41-.63,6.25-3.89,6-7.07-.24-3.76-2.23-6.16-6.11-6.93a20.33,20.33,0,0,0-3.57-.31c-2.88,0-5.76,0-8.64,0a9.83,9.83,0,0,1-8.48-4.58,12.92,12.92,0,0,1-2-7.53q0-49.8,0-99.6c0-.77.08-1.55.14-2.53h2.74c6.24,0,12.48,0,18.72,0,3.68,0,5.8-1.93,6.21-5.6a12.37,12.37,0,0,0,0-3.33,5.62,5.62,0,0,0-5.23-5.09,17.26,17.26,0,0,0-2.16-.07H92.51c-.84,0-1.68-.07-2.63-.11V90.22c0-10.8,0-21.6,0-32.4a9.6,9.6,0,0,0-.82-3.9c-1.8-3.84-7.18-5.24-11.47-3.21a6.13,6.13,0,0,0-3.67,5,36.34,36.34,0,0,0-.37,5c0,10,0,20,0,30v2.81H70.89c-3.76,0-7.52,0-11.28,0-3.19,0-5.14,1.62-5.63,4.76a13.72,13.72,0,0,0,0,4.52c.62,3.44,2.9,5,5.84,4.83s5.76,0,8.64,0Zm242.46.78c0-3.24.07-6,0-8.83-.07-2.33-.26-4.75-2.23-6.34a9,9,0,0,0-9.92-1.14c-3,1.34-4.06,3.88-3.89,7,0,.32,0,.64,0,1V226.74c0,.64,0,1.28,0,1.92a7.4,7.4,0,0,0,7.26,7.44,7.86,7.86,0,0,0,8.45-6.51,26,26,0,0,0,.33-4q0-48.23,0-96.45a8,8,0,0,1,.74-3.94,37.56,37.56,0,0,1,15.65-15.73c6.2-3.36,12.92-4.41,19.83-4.72,3-.13,4.83-1.47,5.44-4.41a13,13,0,0,0-.5-7.79,5,5,0,0,0-4.8-3.34,39.45,39.45,0,0,0-29.08,11.39C320.79,102.92,318.59,105.53,316,108.37Zm229.92,54c0-21.83,0-43.66,0-65.5,0-5-3.37-7.53-7.25-8s-8.58,1.83-9,6.61c-.08.88-.14,1.75-.14,2.63q0,63.94,0,127.89a24.26,24.26,0,0,0,.32,3.8c1.11,6.85,8.21,7.77,11.92,5.41a8.6,8.6,0,0,0,4.15-7.84Q545.84,194.87,545.88,162.36ZM525,51c0,.48,0,1,0,1.44.51,5.08,2.76,9.09,7.69,10.92s9.72,1.19,13.77-2.63c5.11-4.81,5.43-13.68.54-19.35-4.38-5.09-13.34-5.35-18.11-.61C526.07,43.58,525.06,47.1,525,51Z"/><path class="cls-2" d="M243.72,152.56H160.21c-.64-2.4,0-4.59.36-6.76,2-11.57,6.37-22.07,14.31-30.86a33.88,33.88,0,0,1,21.8-11.34,36.43,36.43,0,0,1,22.45,4.06,38.45,38.45,0,0,1,13.09,12.08,64.07,64.07,0,0,1,11.21,30.46C243.51,150.89,243.6,151.58,243.72,152.56Z"/></svg>